<svg viewBox="0 0 1024 1024" xmlns="http://www.w3.org/2000/svg"><path d="M440 160H200c-22.092 0-40 17.908-40 40v240c0 22.092 17.908 40 40 40h240c22.092 0 40-17.908 40-40V200c0-22.092-17.908-40-40-40zM440 544H200c-22.092 0-40 17.908-40 40v240c0 22.092 17.908 40 40 40h240c22.092 0 40-17.908 40-40v-240c0-22.092-17.908-40-40-40z m-40 80v160H240v-160h160zM824 160h-240c-22.092 0-40 17.908-40 40v240c0 22.092 17.908 40 40 40h240c22.092 0 40-17.908 40-40V200c0-22.092-17.908-40-40-40z m-40 80v160h-160V240h160zM824 544h-240c-22.092 0-40 17.908-40 40v240c0 22.092 17.908 40 40 40h240c22.092 0 40-17.908 40-40v-240c0-22.092-17.908-40-40-40z m-40 80v160h-160v-160h160z"/></svg>